<?xml version="1.0" encoding="utf-8"?>
<!-- Generator: Adobe Illustrator 16.0.0, SVG Export Plug-In . SVG Version: 6.00 Build 0)  -->
<!DOCTYPE svg PUBLIC "-//W3C//DTD SVG 1.1//EN" "http://www.w3.org/Graphics/SVG/1.1/DTD/svg11.dtd">
<svg version="1.1" id="Layer_1" xmlns="http://www.w3.org/2000/svg" xmlns:xlink="http://www.w3.org/1999/xlink" x="0px" y="0px"
	 width="369.702px" height="62.82px" viewBox="0 0 369.702 62.82" enable-background="new 0 0 369.702 62.82" xml:space="preserve">
<text transform="matrix(1 0 0 1 72.1553 43.5151)" font-family="'GothamRounded-Bold'" font-size="43.6037" letter-spacing="-2">squeaky wheel</text>
<path d="M60.353,19.184c-1.583-3.741-3.846-7.099-6.731-9.983c-2.883-2.884-6.241-5.148-9.983-6.731C39.764,0.831,35.65,0,31.411,0
	c-4.238,0-8.353,0.831-12.227,2.469C15.443,4.052,12.085,6.316,9.2,9.2c-2.882,2.884-5.147,6.241-6.73,9.983
	C0.832,23.057,0,27.171,0,31.411s0.832,8.354,2.47,12.227c1.583,3.741,3.848,7.1,6.73,9.984c2.885,2.884,6.243,5.148,9.984,6.729
	c3.875,1.638,7.989,2.469,12.227,2.469c4.239,0,8.353-0.831,12.227-2.469c3.741-1.583,7.099-3.846,9.983-6.729
	c2.885-2.884,5.148-6.243,6.731-9.984c1.639-3.873,2.469-7.988,2.469-12.227C62.821,27.171,61.991,23.057,60.353,19.184z
	 M40.198,52.19c-0.719,0.116-1.455,0.175-2.184,0.176c-4.665,0.017-9.331,0.032-13.996-0.004c-1.662-0.012-3.177-0.494-4.418-1.713
	c-2.95-2.896-1.838-8.038,2.084-9.375c0.783-0.266,1.641-0.405,2.468-0.422c2.433-0.056,4.868-0.019,7.303-0.019
	c2.496,0,4.994-0.038,7.488,0.011c1.986,0.041,3.698,0.764,4.878,2.433C46.243,46.695,44.353,51.513,40.198,52.19z M40.198,37.183
	c-0.719,0.119-1.455,0.177-2.184,0.18c-4.665,0.014-9.331,0.029-13.996-0.004c-1.662-0.014-3.177-0.496-4.418-1.715
	c-2.95-2.895-1.838-8.038,2.084-9.374c0.783-0.267,1.641-0.406,2.468-0.424c2.433-0.054,4.868-0.019,7.303-0.019
	c2.496,0,4.994-0.038,7.488,0.014c1.986,0.039,3.698,0.765,4.878,2.43C46.243,31.689,44.353,36.508,40.198,37.183z M40.198,22.207
	c-0.719,0.117-1.455,0.174-2.184,0.176c-4.665,0.016-9.331,0.031-13.996-0.004c-1.662-0.012-3.177-0.495-4.418-1.714
	c-2.95-2.896-1.838-8.037,2.084-9.374c0.783-0.267,1.641-0.405,2.468-0.423c2.433-0.055,4.868-0.02,7.303-0.02
	c2.496,0,4.994-0.038,7.488,0.013c1.986,0.038,3.698,0.764,4.878,2.431C46.243,16.711,44.353,21.53,40.198,22.207z"/>
</svg>
