<?xml version="1.0" encoding="utf-8"?>
<!-- Generator: Adobe Illustrator 16.0.0, SVG Export Plug-In . SVG Version: 6.00 Build 0)  -->
<!DOCTYPE svg PUBLIC "-//W3C//DTD SVG 1.1//EN" "http://www.w3.org/Graphics/SVG/1.1/DTD/svg11.dtd">
<svg version="1.1" id="Layer_1" xmlns="http://www.w3.org/2000/svg" xmlns:xlink="http://www.w3.org/1999/xlink" x="0px" y="0px"
	 width="472.498px" height="138.493px" viewBox="0 0 472.498 138.493" enable-background="new 0 0 472.498 138.493"
	 xml:space="preserve">
<path fill="#FFFFFF" d="M387.477,25.233v65.364h-8.286V79.362c-3.526,4.285-7.48,7.51-11.867,9.672
	c-4.384,2.162-9.185,3.242-14.39,3.242c-9.249,0-17.147-3.354-23.698-10.061c-6.548-6.709-9.824-14.868-9.824-24.48
	c0-9.412,3.305-17.462,9.916-24.15c6.604-6.689,14.556-10.034,23.847-10.034c5.368,0,10.225,1.141,14.567,3.424
	c4.348,2.284,8.162,5.707,11.448,10.274V25.233H387.477z M353.865,31.66c-4.681,0-8.999,1.151-12.963,3.451
	c-3.962,2.302-7.109,5.531-9.451,9.692c-2.34,4.161-3.51,8.563-3.51,13.202c0,4.599,1.18,9.001,3.541,13.203
	c2.36,4.199,5.532,7.469,9.512,9.809c3.979,2.341,8.251,3.514,12.811,3.514c4.604,0,8.961-1.164,13.082-3.482
	c4.118-2.321,7.289-5.459,9.51-9.422c2.22-3.958,3.331-8.419,3.331-13.378c0-7.562-2.486-13.881-7.47-18.965
	C367.277,34.201,361.146,31.66,353.865,31.66"/>
<path fill="#F49222" d="M278.539,56.234l8.008-0.006c0.07,5.122-0.59,9.634-1.978,13.535c-1.391,3.899-3.43,7.383-6.117,10.452
	c-2.689,3.068-6.159,5.723-10.417,7.965c-9.435,4.967-18.442,5.761-27.021,2.379c-8.576-3.383-14.917-8.971-19.021-16.768
	c-3.862-7.336-5.054-15.062-3.574-23.171c1.864-10.307,7.587-17.983,17.164-23.027c9.86-5.194,19.703-5.6,29.531-1.223
	c6.963,3.075,12.562,8.547,16.797,16.412l-52.041,27.404c3.678,6.643,8.728,11.02,15.14,13.129
	c6.413,2.109,12.672,1.557,18.772-1.656c2.944-1.553,5.541-3.568,7.784-6.062c2.248-2.49,3.902-5.097,4.961-7.82
	C277.588,65.054,278.258,61.208,278.539,56.234 M270.338,40.659c-3.082-3.445-6.198-5.854-9.351-7.229
	c-3.146-1.372-6.666-1.967-10.555-1.774c-3.887,0.192-7.551,1.192-10.99,3.005c-5.682,2.989-9.596,7.385-11.753,13.182
	c-1.581,4.226-1.733,9.401-0.461,15.522L270.338,40.659z M298.187,0h8.409v90.597h-8.409V0z M403.006,90.597V0h8.408v36.468
	c3.52-4.326,7.463-7.559,11.828-9.702c4.358-2.144,9.141-3.215,14.34-3.215c9.241,0,17.133,3.353,23.674,10.062
	c6.543,6.708,9.816,14.851,9.816,24.423c0,9.447-3.3,17.52-9.904,24.208c-6.6,6.691-14.545,10.03-23.826,10.03
	c-5.318,0-10.141-1.14-14.459-3.424c-4.321-2.281-8.146-5.707-11.469-10.272v12.019H403.006z M436.648,84.167
	c4.674,0,8.989-1.148,12.945-3.453c3.952-2.303,7.102-5.534,9.44-9.701c2.332-4.164,3.506-8.57,3.506-13.218
	c0-4.646-1.183-9.07-3.537-13.275c-2.355-4.205-5.526-7.48-9.502-9.823c-3.975-2.344-8.221-3.515-12.731-3.515
	c-4.599,0-8.962,1.171-13.099,3.515c-4.137,2.343-7.311,5.496-9.533,9.463c-2.215,3.963-3.323,8.43-3.323,13.396
	c0,7.568,2.485,13.896,7.464,18.982C423.252,81.625,429.377,84.167,436.648,84.167"/>
<g enable-background="new    ">
	<path fill="#FFFFFF" d="M8.064,130.934c1.885,0,3.238-0.784,4.06-2.353h2.296c-0.485,1.27-1.255,2.296-2.31,3.08
		s-2.413,1.176-4.074,1.176c-2.11,0-3.827-0.699-5.152-2.1c-1.288-1.362-1.932-3.07-1.932-5.124c0-2.072,0.616-3.78,1.848-5.124
		c1.307-1.4,3.005-2.1,5.096-2.1c2.09,0,3.789,0.699,5.096,2.1c1.232,1.344,1.848,3.052,1.848,5.124v0.84H3.108
		c0.149,1.288,0.663,2.353,1.54,3.192C5.544,130.504,6.683,130.934,8.064,130.934z M7.896,120.293c-1.288,0-2.371,0.402-3.248,1.204
		c-0.822,0.766-1.326,1.765-1.512,2.996h9.52c-0.187-1.231-0.69-2.23-1.512-2.996C10.267,120.696,9.184,120.293,7.896,120.293z"/>
</g>
<g enable-background="new    ">
	<path fill="#FFFFFF" d="M20.076,120.742c0.933-1.568,2.352-2.352,4.256-2.352c0.934,0,1.796,0.247,2.59,0.741
		c0.793,0.495,1.414,1.19,1.862,2.086c0.634-1.176,1.624-2.016,2.968-2.52c0.541-0.205,1.152-0.308,1.834-0.308
		c0.681,0,1.334,0.136,1.96,0.405c0.625,0.271,1.18,0.658,1.666,1.162c1.045,1.12,1.568,2.521,1.568,4.2v8.456h-2.1v-8.4
		c0-1.157-0.327-2.108-0.98-2.855c-0.654-0.709-1.484-1.064-2.492-1.064c-1.064,0-1.951,0.346-2.66,1.036
		c-0.747,0.71-1.12,1.681-1.12,2.912v8.372h-2.1v-8.4c0-1.157-0.327-2.108-0.98-2.855c-0.653-0.709-1.484-1.064-2.492-1.064
		c-1.064,0-1.951,0.346-2.66,1.036c-0.747,0.71-1.12,1.681-1.12,2.912v8.372h-2.1v-14h2.1V120.742z"/>
</g>
<g enable-background="new    ">
	<path fill="#FFFFFF" d="M49.056,130.934c1.885,0,3.238-0.784,4.06-2.353h2.296c-0.485,1.27-1.255,2.296-2.31,3.08
		s-2.413,1.176-4.074,1.176c-2.11,0-3.827-0.699-5.152-2.1c-1.288-1.362-1.932-3.07-1.932-5.124c0-2.072,0.616-3.78,1.848-5.124
		c1.307-1.4,3.005-2.1,5.096-2.1c2.09,0,3.789,0.699,5.096,2.1c1.232,1.344,1.848,3.052,1.848,5.124v0.84H44.1
		c0.149,1.288,0.663,2.353,1.54,3.192C46.536,130.504,47.675,130.934,49.056,130.934z M48.888,120.293
		c-1.288,0-2.371,0.402-3.248,1.204c-0.822,0.766-1.326,1.765-1.512,2.996h9.52c-0.187-1.231-0.69-2.23-1.512-2.996
		C51.259,120.696,50.176,120.293,48.888,120.293z"/>
</g>
<g enable-background="new    ">
	<path fill="#FFFFFF" d="M66.359,118.39v2.1h-0.252c-1.512,0-2.744,0.606-3.696,1.82c-0.896,1.157-1.344,2.538-1.344,4.144v6.16
		h-2.1v-14h2.1v3.444c0.448-1.456,1.418-2.529,2.912-3.221c0.616-0.298,1.362-0.447,2.24-0.447H66.359z"/>
</g>
<g enable-background="new    ">
	<path fill="#FFFFFF" d="M79.715,120.854v-2.24h2.1v13.58c0,2.016-0.574,3.551-1.722,4.605s-2.693,1.582-4.634,1.582
		s-3.458-0.373-4.55-1.119c-1.092-0.747-1.834-1.736-2.226-2.969h2.324c0.597,1.456,1.96,2.185,4.088,2.185
		c1.624,0,2.8-0.374,3.528-1.12c0.728-0.747,1.092-1.848,1.092-3.304v-1.933c-1.139,1.662-2.81,2.492-5.012,2.492
		c-2.016,0-3.659-0.69-4.928-2.072c-1.232-1.344-1.848-3.023-1.848-5.04c0-2.016,0.616-3.695,1.848-5.04
		c1.27-1.381,2.963-2.071,5.082-2.071S78.595,119.211,79.715,120.854z M74.983,130.709c0.765,0,1.447-0.135,2.044-0.405
		c0.598-0.271,1.111-0.64,1.54-1.106c0.84-0.971,1.26-2.202,1.26-3.696c0-1.493-0.42-2.725-1.26-3.695
		c-0.915-1.009-2.109-1.513-3.584-1.513c-1.512,0-2.726,0.504-3.64,1.513c-0.878,0.989-1.316,2.222-1.316,3.695
		c0,1.476,0.438,2.707,1.316,3.696C72.257,130.206,73.471,130.709,74.983,130.709z"/>
	<path fill="#FFFFFF" d="M87.639,113.518v2.744h-2.268v-2.744H87.639z M85.455,118.614h2.1v14h-2.1V118.614z"/>
</g>
<g enable-background="new    ">
	<path fill="#FFFFFF" d="M94.415,118.614v2.184c0.504-0.672,1.12-1.241,1.848-1.708c0.728-0.466,1.558-0.699,2.492-0.699
		s1.736,0.131,2.408,0.392c0.672,0.262,1.26,0.653,1.764,1.176c1.157,1.139,1.736,2.642,1.736,4.508v8.148h-2.1v-8.092
		c0-1.288-0.364-2.314-1.092-3.08s-1.671-1.148-2.828-1.148c-1.176,0-2.175,0.393-2.996,1.177c-0.821,0.803-1.232,1.829-1.232,3.079
		v8.064h-2.1v-14H94.415z"/>
</g>
<g enable-background="new    ">
	<path fill="#FFFFFF" d="M119.615,120.854v-2.24h2.1v13.58c0,2.016-0.574,3.551-1.722,4.605s-2.693,1.582-4.634,1.582
		s-3.458-0.373-4.55-1.119c-1.092-0.747-1.834-1.736-2.226-2.969h2.324c0.597,1.456,1.96,2.185,4.088,2.185
		c1.624,0,2.8-0.374,3.528-1.12c0.728-0.747,1.092-1.848,1.092-3.304v-1.933c-1.139,1.662-2.81,2.492-5.012,2.492
		c-2.016,0-3.659-0.69-4.928-2.072c-1.232-1.344-1.848-3.023-1.848-5.04c0-2.016,0.616-3.695,1.848-5.04
		c1.27-1.381,2.963-2.071,5.082-2.071S118.495,119.211,119.615,120.854z M114.883,130.709c0.765,0,1.447-0.135,2.044-0.405
		c0.598-0.271,1.111-0.64,1.54-1.106c0.84-0.971,1.26-2.202,1.26-3.696c0-1.493-0.42-2.725-1.26-3.695
		c-0.915-1.009-2.109-1.513-3.584-1.513c-1.512,0-2.726,0.504-3.64,1.513c-0.878,0.989-1.316,2.222-1.316,3.695
		c0,1.476,0.438,2.707,1.316,3.696C112.157,130.206,113.371,130.709,114.883,130.709z"/>
</g>
<g enable-background="new    ">
	<path fill="#FFFFFF" d="M134.624,132.614h-2.1v-19.6h2.1V132.614z"/>
</g>
<g enable-background="new    ">
	<path fill="#FFFFFF" d="M145.068,130.934c1.885,0,3.238-0.784,4.06-2.353h2.296c-0.485,1.27-1.255,2.296-2.31,3.08
		s-2.413,1.176-4.074,1.176c-2.11,0-3.827-0.699-5.152-2.1c-1.288-1.362-1.932-3.07-1.932-5.124c0-2.072,0.616-3.78,1.848-5.124
		c1.307-1.4,3.005-2.1,5.096-2.1c2.09,0,3.789,0.699,5.096,2.1c1.232,1.344,1.848,3.052,1.848,5.124v0.84h-11.732
		c0.149,1.288,0.663,2.353,1.54,3.192C142.548,130.504,143.687,130.934,145.068,130.934z M144.9,120.293
		c-1.288,0-2.371,0.402-3.248,1.204c-0.822,0.766-1.326,1.765-1.512,2.996h9.52c-0.187-1.231-0.69-2.23-1.512-2.996
		C147.271,120.696,146.188,120.293,144.9,120.293z"/>
	<path fill="#FFFFFF" d="M165.34,130.374c-1.12,1.643-2.791,2.464-5.012,2.464c-2.016,0-3.659-0.699-4.928-2.1
		c-1.232-1.381-1.848-3.089-1.848-5.124c0-2.034,0.616-3.742,1.848-5.124c1.27-1.4,2.958-2.1,5.068-2.1
		c2.109,0,3.733,0.83,4.872,2.491v-2.268h2.1v14h-2.1V130.374z M160.607,130.934c1.512,0,2.707-0.522,3.584-1.568
		c0.84-0.989,1.26-2.24,1.26-3.752s-0.42-2.763-1.26-3.752c-0.877-1.045-2.072-1.568-3.584-1.568c-1.494,0-2.707,0.523-3.64,1.568
		c-0.878,0.989-1.316,2.24-1.316,3.752s0.438,2.763,1.316,3.752C157.901,130.412,159.114,130.934,160.607,130.934z"/>
	<path fill="#FFFFFF" d="M182,130.374c-1.12,1.643-2.791,2.464-5.012,2.464c-2.016,0-3.659-0.699-4.928-2.1
		c-1.232-1.381-1.848-3.089-1.848-5.124c0-2.034,0.616-3.742,1.848-5.124c1.27-1.4,2.958-2.1,5.068-2.1
		c2.109,0,3.733,0.83,4.872,2.491v-7.867h2.1v19.6H182V130.374z M177.267,130.934c1.512,0,2.707-0.522,3.584-1.568
		c0.84-0.989,1.26-2.24,1.26-3.752s-0.42-2.763-1.26-3.752c-0.877-1.045-2.072-1.568-3.584-1.568c-1.494,0-2.707,0.523-3.64,1.568
		c-0.878,0.989-1.316,2.24-1.316,3.752s0.438,2.763,1.316,3.752C174.561,130.412,175.773,130.934,177.267,130.934z"/>
	<path fill="#FFFFFF" d="M193.983,130.934c1.885,0,3.238-0.784,4.06-2.353h2.296c-0.485,1.27-1.255,2.296-2.31,3.08
		s-2.413,1.176-4.074,1.176c-2.11,0-3.827-0.699-5.152-2.1c-1.288-1.362-1.932-3.07-1.932-5.124c0-2.072,0.616-3.78,1.848-5.124
		c1.307-1.4,3.005-2.1,5.096-2.1c2.09,0,3.789,0.699,5.096,2.1c1.232,1.344,1.848,3.052,1.848,5.124v0.84h-11.732
		c0.149,1.288,0.663,2.353,1.54,3.192C191.463,130.504,192.602,130.934,193.983,130.934z M193.815,120.293
		c-1.288,0-2.371,0.402-3.248,1.204c-0.822,0.766-1.326,1.765-1.512,2.996h9.52c-0.187-1.231-0.69-2.23-1.512-2.996
		C196.186,120.696,195.103,120.293,193.815,120.293z"/>
	<path fill="#FFFFFF" d="M210.727,118.39v2.1h-0.252c-1.512,0-2.744,0.606-3.696,1.82c-0.896,1.157-1.344,2.538-1.344,4.144v6.16
		h-2.1v-14h2.1v3.444c0.448-1.456,1.418-2.529,2.912-3.221c0.616-0.298,1.362-0.447,2.24-0.447H210.727z"/>
</g>
<g enable-background="new    ">
	<path fill="#FFFFFF" d="M224.027,122.366c-0.187-1.456-1.358-2.184-3.514-2.184c-2.156,0-3.234,0.672-3.234,2.016
		c0,0.56,0.228,0.984,0.686,1.274c0.457,0.289,1.031,0.527,1.722,0.714c0.69,0.187,1.442,0.359,2.254,0.518
		c0.812,0.159,1.563,0.383,2.254,0.672c0.69,0.29,1.264,0.687,1.722,1.19s0.686,1.194,0.686,2.072c0,1.362-0.514,2.403-1.54,3.122
		c-1.027,0.719-2.417,1.077-4.172,1.077c-1.867,0-3.351-0.466-4.452-1.399c-1.008-0.821-1.549-1.895-1.624-3.221h2.184
		c0.13,1.288,0.858,2.156,2.184,2.604c0.485,0.149,0.966,0.224,1.442,0.224s0.919-0.027,1.33-0.084
		c0.41-0.056,0.812-0.158,1.204-0.308c0.896-0.354,1.344-0.961,1.344-1.82c0-0.578-0.229-1.021-0.686-1.33
		c-0.458-0.308-1.031-0.56-1.722-0.756c-0.691-0.195-1.442-0.373-2.254-0.532c-0.812-0.158-1.564-0.378-2.254-0.657
		c-0.69-0.28-1.265-0.663-1.722-1.148c-0.458-0.485-0.686-1.157-0.686-2.016c0-1.27,0.462-2.254,1.386-2.954
		c0.924-0.7,2.292-1.05,4.102-1.05c1.717,0,3.07,0.41,4.06,1.231c0.821,0.691,1.297,1.605,1.428,2.744H224.027z"/>
</g>
<g enable-background="new    ">
	<path fill="#FFFFFF" d="M238.502,113.518v2.744h-2.268v-2.744H238.502z M236.318,118.614h2.1v14h-2.1V118.614z"/>
</g>
<g enable-background="new    ">
	<path fill="#FFFFFF" d="M244.718,118.614v2.184c0.504-0.672,1.12-1.241,1.848-1.708c0.729-0.466,1.559-0.699,2.492-0.699
		s1.736,0.131,2.408,0.392c0.672,0.262,1.26,0.653,1.764,1.176c1.158,1.139,1.736,2.642,1.736,4.508v8.148h-2.1v-8.092
		c0-1.288-0.364-2.314-1.092-3.08c-0.729-0.766-1.672-1.148-2.828-1.148c-1.176,0-2.176,0.393-2.996,1.177
		c-0.822,0.803-1.232,1.829-1.232,3.079v8.064h-2.1v-14H244.718z"/>
</g>
<g enable-background="new    ">
	<path fill="#FFFFFF" d="M266,132.614v-12.152h-2.856v-1.848H266v-5.012h2.101v5.012h3.219v1.848h-3.219v12.152H266z"/>
</g>
<g enable-background="new    ">
	<path fill="#FFFFFF" d="M276.276,113.014v7.783c0.504-0.672,1.119-1.241,1.848-1.708c0.729-0.466,1.559-0.699,2.492-0.699
		s1.736,0.131,2.408,0.392c0.672,0.262,1.26,0.653,1.764,1.176c1.157,1.139,1.736,2.642,1.736,4.508v8.148h-2.101v-8.092
		c0-1.288-0.364-2.314-1.092-3.08s-1.671-1.148-2.828-1.148c-1.176,0-2.175,0.393-2.996,1.177c-0.821,0.803-1.231,1.829-1.231,3.079
		v8.064h-2.101v-19.6H276.276z"/>
</g>
<g enable-background="new    ">
	<path fill="#FFFFFF" d="M296.799,130.934c1.886,0,3.238-0.784,4.06-2.353h2.297c-0.486,1.27-1.256,2.296-2.311,3.08
		s-2.412,1.176-4.074,1.176c-2.109,0-3.826-0.699-5.152-2.1c-1.287-1.362-1.932-3.07-1.932-5.124c0-2.072,0.616-3.78,1.848-5.124
		c1.307-1.4,3.006-2.1,5.097-2.1s3.789,0.699,5.097,2.1c1.231,1.344,1.848,3.052,1.848,5.124v0.84h-11.732
		c0.149,1.288,0.662,2.353,1.54,3.192C294.278,130.504,295.417,130.934,296.799,130.934z M296.631,120.293
		c-1.288,0-2.37,0.402-3.248,1.204c-0.821,0.766-1.325,1.765-1.512,2.996h9.52c-0.187-1.231-0.69-2.23-1.512-2.996
		C299.001,120.696,297.919,120.293,296.631,120.293z"/>
</g>
<g enable-background="new    ">
	<path fill="#FFFFFF" d="M324.128,130.374c-1.121,1.643-2.791,2.464-5.013,2.464c-2.017,0-3.659-0.699-4.929-2.1
		c-1.231-1.381-1.848-3.089-1.848-5.124c0-2.034,0.616-3.742,1.848-5.124c1.27-1.4,2.959-2.1,5.068-2.1s3.733,0.83,4.873,2.491
		v-2.268h2.1v14h-2.1V130.374z M319.396,130.934c1.512,0,2.706-0.522,3.584-1.568c0.84-0.989,1.26-2.24,1.26-3.752
		s-0.42-2.763-1.26-3.752c-0.878-1.045-2.072-1.568-3.584-1.568c-1.494,0-2.707,0.523-3.641,1.568
		c-0.877,0.989-1.316,2.24-1.316,3.752s0.439,2.763,1.316,3.752C316.688,130.412,317.901,130.934,319.396,130.934z"/>
	<path fill="#FFFFFF" d="M337.259,118.39v2.1h-0.252c-1.512,0-2.744,0.606-3.695,1.82c-0.896,1.157-1.345,2.538-1.345,4.144v6.16
		h-2.101v-14h2.101v3.444c0.448-1.456,1.419-2.529,2.912-3.221c0.616-0.298,1.362-0.447,2.239-0.447H337.259z"/>
	<path fill="#FFFFFF" d="M341.038,132.614v-12.152h-2.855v-1.848h2.855v-5.012h2.101v5.012h3.22v1.848h-3.22v12.152H341.038z"/>
</g>
<g enable-background="new    ">
	<path fill="#FFFFFF" d="M358.565,122.366c-0.186-1.456-1.357-2.184-3.514-2.184s-3.233,0.672-3.233,2.016
		c0,0.56,0.228,0.984,0.687,1.274c0.457,0.289,1.03,0.527,1.721,0.714c0.691,0.187,1.442,0.359,2.254,0.518
		c0.812,0.159,1.564,0.383,2.255,0.672c0.69,0.29,1.265,0.687,1.722,1.19s0.686,1.194,0.686,2.072c0,1.362-0.514,2.403-1.539,3.122
		c-1.027,0.719-2.418,1.077-4.172,1.077c-1.867,0-3.352-0.466-4.453-1.399c-1.008-0.821-1.549-1.895-1.623-3.221h2.184
		c0.131,1.288,0.858,2.156,2.184,2.604c0.486,0.149,0.967,0.224,1.442,0.224s0.919-0.027,1.33-0.084
		c0.41-0.056,0.812-0.158,1.204-0.308c0.896-0.354,1.344-0.961,1.344-1.82c0-0.578-0.229-1.021-0.686-1.33
		c-0.458-0.308-1.031-0.56-1.723-0.756c-0.69-0.195-1.441-0.373-2.254-0.532c-0.812-0.158-1.563-0.378-2.254-0.657
		c-0.69-0.28-1.265-0.663-1.722-1.148c-0.458-0.485-0.687-1.157-0.687-2.016c0-1.27,0.463-2.254,1.387-2.954s2.291-1.05,4.102-1.05
		c1.717,0,3.07,0.41,4.061,1.231c0.82,0.691,1.297,1.605,1.428,2.744H358.565z"/>
	<path fill="#FFFFFF" d="M369.794,137.625v-25.956h1.708v25.956H369.794z"/>
</g>
<g enable-background="new    ">
	<path fill="#7B8084" d="M385.504,120.881c1.139-1.661,2.81-2.491,5.013-2.491c2.016,0,3.648,0.699,4.899,2.1
		c1.251,1.382,1.876,3.09,1.876,5.124c0,2.035-0.625,3.743-1.876,5.124c-1.251,1.4-2.936,2.1-5.054,2.1
		c-2.119,0-3.738-0.821-4.858-2.464v2.24h-2.101v-19.6h2.101V120.881z M390.235,130.934c1.494,0,2.707-0.522,3.641-1.568
		c0.877-0.989,1.316-2.24,1.316-3.752s-0.439-2.763-1.316-3.752c-0.934-1.045-2.146-1.568-3.641-1.568
		c-1.512,0-2.706,0.523-3.584,1.568c-0.84,0.989-1.26,2.24-1.26,3.752s0.42,2.763,1.26,3.752
		C387.529,130.412,388.724,130.934,390.235,130.934z"/>
</g>
<g enable-background="new    ">
	<path fill="#7B8084" d="M410.703,132.614v-2.184c-0.505,0.672-1.12,1.241-1.849,1.708c-0.728,0.467-1.559,0.699-2.492,0.699
		s-1.735-0.131-2.407-0.392c-0.673-0.261-1.261-0.653-1.765-1.176c-1.157-1.139-1.735-2.642-1.735-4.508v-8.148h2.1v8.092
		c0,1.288,0.364,2.315,1.093,3.08c0.728,0.766,1.67,1.148,2.828,1.148c1.176,0,2.174-0.393,2.995-1.177
		c0.821-0.802,1.232-1.829,1.232-3.079v-8.064h2.1v14H410.703z"/>
</g>
<g enable-background="new    ">
	<path fill="#7B8084" d="M422.995,114.778c-0.989,0-1.731,0.22-2.227,0.658c-0.494,0.438-0.741,1.144-0.741,2.113v1.064h3.248v1.848
		h-3.248v12.152h-2.101v-12.152h-2.408v-1.848h2.408v-1.232c0-1.53,0.457-2.678,1.373-3.443c0.914-0.766,2.184-1.148,3.808-1.148
		h0.168v1.988H422.995z"/>
</g>
<g enable-background="new    ">
	<path fill="#7B8084" d="M432.151,114.778c-0.988,0-1.73,0.22-2.226,0.658s-0.741,1.144-0.741,2.113v1.064h3.248v1.848h-3.248
		v12.152h-2.101v-12.152h-2.408v-1.848h2.408v-1.232c0-1.53,0.457-2.678,1.372-3.443c0.914-0.766,2.184-1.148,3.809-1.148h0.168
		v1.988H432.151z"/>
</g>
<g enable-background="new    ">
	<path fill="#7B8084" d="M445.929,130.374c-1.121,1.643-2.791,2.464-5.013,2.464c-2.017,0-3.659-0.699-4.929-2.1
		c-1.231-1.381-1.848-3.089-1.848-5.124c0-2.034,0.616-3.742,1.848-5.124c1.27-1.4,2.959-2.1,5.068-2.1s3.733,0.83,4.873,2.491
		v-2.268h2.1v14h-2.1V130.374z M441.196,130.934c1.512,0,2.706-0.522,3.584-1.568c0.84-0.989,1.26-2.24,1.26-3.752
		s-0.42-2.763-1.26-3.752c-0.878-1.045-2.072-1.568-3.584-1.568c-1.494,0-2.707,0.523-3.641,1.568
		c-0.877,0.989-1.316,2.24-1.316,3.752s0.439,2.763,1.316,3.752C438.489,130.412,439.702,130.934,441.196,130.934z"/>
	<path fill="#7B8084" d="M453.768,132.614h-2.101v-19.6h2.101V132.614z"/>
</g>
<g enable-background="new    ">
	<path fill="#7B8084" d="M464.603,118.39c2.09,0,3.789,0.699,5.096,2.1c1.232,1.344,1.848,3.052,1.848,5.124
		s-0.615,3.78-1.848,5.124c-1.307,1.4-3.006,2.1-5.096,2.1c-2.092,0-3.79-0.699-5.097-2.1c-1.231-1.344-1.848-3.052-1.848-5.124
		s0.616-3.78,1.848-5.124C460.812,119.089,462.511,118.39,464.603,118.39z M464.603,130.934c1.512,0,2.706-0.522,3.584-1.568
		c0.84-0.989,1.26-2.24,1.26-3.752s-0.42-2.763-1.26-3.752c-0.878-1.045-2.072-1.568-3.584-1.568c-1.513,0-2.707,0.523-3.584,1.568
		c-0.84,0.989-1.261,2.24-1.261,3.752s0.421,2.763,1.261,3.752C461.896,130.412,463.09,130.934,464.603,130.934z"/>
</g>
</svg>
