<?xml version="1.0" encoding="utf-8"?>
<!-- Generator: Adobe Illustrator 16.0.0, SVG Export Plug-In . SVG Version: 6.00 Build 0)  -->
<!DOCTYPE svg PUBLIC "-//W3C//DTD SVG 1.1//EN" "http://www.w3.org/Graphics/SVG/1.1/DTD/svg11.dtd">
<svg version="1.1" id="Layer_1" xmlns="http://www.w3.org/2000/svg" xmlns:xlink="http://www.w3.org/1999/xlink" x="0px" y="0px"
	 width="62.256px" height="22.765px" viewBox="0 0 62.256 22.765" enable-background="new 0 0 62.256 22.765" xml:space="preserve">
<path fill="#FFFFFF" d="M41.707,6.202v16.067H39.67v-2.761c-0.867,1.053-1.839,1.845-2.917,2.377
	c-1.078,0.531-2.258,0.797-3.537,0.797c-2.273,0-4.215-0.824-5.826-2.473c-1.608-1.649-2.414-3.655-2.414-6.018
	c0-2.314,0.812-4.292,2.438-5.937c1.624-1.644,3.578-2.466,5.861-2.466c1.319,0,2.514,0.28,3.581,0.841
	c1.068,0.562,2.007,1.403,2.814,2.526V6.202H41.707z M33.445,7.782c-1.15,0-2.212,0.283-3.187,0.848
	c-0.974,0.566-1.748,1.36-2.324,2.383c-0.574,1.022-0.861,2.104-0.861,3.245c0,1.13,0.29,2.212,0.869,3.244
	c0.58,1.033,1.36,1.836,2.339,2.412c0.978,0.576,2.027,0.863,3.148,0.863c1.131,0,2.203-0.285,3.216-0.855
	c1.013-0.571,1.791-1.342,2.338-2.316c0.546-0.973,0.818-2.07,0.818-3.289c0-1.857-0.611-3.412-1.836-4.662
	C36.742,8.407,35.235,7.782,33.445,7.782"/>
<path fill="#7B8084" d="M14.929,13.823l1.969-0.002c0.017,1.26-0.146,2.367-0.486,3.327c-0.342,0.959-0.843,1.815-1.504,2.569
	s-1.514,1.406-2.561,1.957c-2.318,1.223-4.533,1.418-6.642,0.586s-3.667-2.205-4.676-4.123c-0.949-1.803-1.242-3.701-0.878-5.694
	c0.458-2.534,1.864-4.421,4.219-5.66c2.424-1.277,4.843-1.377,7.259-0.301c1.712,0.756,3.088,2.101,4.129,4.034L2.966,17.252
	c0.904,1.633,2.146,2.709,3.721,3.227c1.576,0.52,3.115,0.383,4.615-0.406c0.725-0.382,1.362-0.878,1.913-1.49
	c0.554-0.613,0.959-1.252,1.22-1.922S14.86,15.045,14.929,13.823 M12.913,9.994c-0.758-0.848-1.524-1.439-2.299-1.777
	C9.841,7.88,8.976,7.734,8.021,7.781C7.065,7.828,6.164,8.074,5.319,8.52c-1.397,0.735-2.359,1.815-2.891,3.24
	c-0.388,1.04-0.426,2.311-0.112,3.817L12.913,9.994z M19.758,0h2.067v22.27h-2.067V0z M45.524,22.27V0h2.066v8.964
	c0.865-1.063,1.835-1.858,2.908-2.385c1.071-0.527,2.246-0.79,3.523-0.79c2.272,0,4.213,0.824,5.82,2.473
	c1.608,1.649,2.413,3.651,2.413,6.004c0,2.322-0.811,4.306-2.435,5.949c-1.622,1.646-3.575,2.467-5.857,2.467
	c-1.307,0-2.492-0.28-3.554-0.842c-1.062-0.561-2.002-1.402-2.819-2.525v2.955H45.524z M53.794,20.688
	c1.149,0,2.21-0.282,3.182-0.848c0.973-0.566,1.746-1.361,2.321-2.385c0.573-1.025,0.862-2.107,0.862-3.25s-0.291-2.23-0.87-3.263
	c-0.579-1.034-1.358-1.839-2.335-2.415c-0.979-0.576-2.021-0.864-3.13-0.864c-1.13,0-2.203,0.288-3.22,0.864
	c-1.018,0.576-1.798,1.351-2.344,2.327c-0.545,0.975-0.816,2.072-0.816,3.292c0,1.861,0.61,3.416,1.834,4.666
	C50.501,20.063,52.007,20.688,53.794,20.688"/>
</svg>
